<?xml version="1.0" encoding="UTF-8" standalone="no"?>
<!-- Created with Inkscape (http://www.inkscape.org/) -->

<svg
   width="1024"
   height="768"
   viewBox="0 0 270.93334 203.2"
   version="1.1"
   id="svg5"
   inkscape:version="1.1.1 (3bf5ae0d25, 2021-09-20, custom)"
   sodipodi:docname="exambox vs windows.svg"
   inkscape:export-filename="logo.png"
   inkscape:export-xdpi="96"
   inkscape:export-ydpi="96"
   xmlns:inkscape="http://www.inkscape.org/namespaces/inkscape"
   xmlns:sodipodi="http://sodipodi.sourceforge.net/DTD/sodipodi-0.dtd"
   xmlns="http://www.w3.org/2000/svg"
   xmlns:svg="http://www.w3.org/2000/svg">
  <sodipodi:namedview
     id="namedview7"
     pagecolor="#000000"
     bordercolor="#666666"
     borderopacity="1.0"
     inkscape:pageshadow="2"
     inkscape:pageopacity="0"
     inkscape:pagecheckerboard="0"
     inkscape:document-units="px"
     showgrid="false"
     units="px"
     width="800px"
     inkscape:zoom="0.67160147"
     inkscape:cx="428.08125"
     inkscape:cy="282.16138"
     inkscape:window-width="1920"
     inkscape:window-height="1014"
     inkscape:window-x="0"
     inkscape:window-y="0"
     inkscape:window-maximized="1"
     inkscape:current-layer="layer1" />
  <defs
     id="defs2">
    <style
       type="text/css"
       id="style2">
   
    .fil0 {fill:black}
   
  </style>
  </defs>
  <g
     inkscape:label="Layer 1"
     inkscape:groupmode="layer"
     id="layer1">
    <g
       id="g1132"
       transform="matrix(5.921513,0,0,5.921513,-751.78629,633.94372)"
       style="fill:#808080">
      <g
         transform="matrix(0.26458334,0,0,0.26458334,154.28885,-99.822886)"
         stroke-width="0.28411"
         id="g110"
         style="fill:#808080">
        <path
           d="m 35.651,45.176 0.0142,-0.07927 c -0.025,0.0179 -0.05313,0.03068 -0.07955,0.04631 0.02245,0.0094 0.04347,0.02188 0.06535,0.03296 z"
           opacity="0.34"
           id="path94"
           style="fill:#808080" />
        <path
           d="m 15.078,56.091 -0.03324,-0.19973 c 0.14802,0.27531 0.35287,0.48214 0.57988,0.58414 -0.0011,0.01108 -0.0031,0.025 -0.0045,0.03551 0.04091,0.0054 0.08268,0.0048 0.12416,0.0065 0.0983,0.02728 0.19945,0.0358 0.30059,0.02017 l 0.03694,-0.0054 c 0.18382,-0.02813 0.34236,-0.13183 0.47106,-0.2807 0.28553,-0.23809 0.43782,-0.60772 0.37077,-1.0168 l -0.21854,-1.3307 -0.28525,-1.897 c -0.10882,-0.72307 -0.56198,-1.2652 -1.0532,-1.3035 0.82905,-3.377 3.7946,-5.8499 7.2853,-5.7894 3.5179,0.06108 6.4139,2.6758 7.0963,6.1198 -0.37219,0.17303 -0.6904,0.62107 -0.79609,1.1899 l -0.54038,2.9054 c -0.05739,0.30741 -0.0429,0.60374 0.02614,0.85888 0.0057,0.02188 0.01477,0.04176 0.02159,0.06307 0.11819,0.37276 0.35656,0.64721 0.67392,0.70688 l 0.03665,0.0065 c 0.04148,0.0077 0.08296,0.01108 0.12444,0.01165 0.06733,0.0142 0.13581,0.02671 0.20826,0.02983 0.06819,0.0031 0.13552,-8.53e-4 0.20172,-0.0085 -0.01904,-0.03978 -0.03381,-0.07643 -0.04659,-0.11222 0.14007,-0.07046 0.2719,-0.17871 0.38668,-0.31878 l 0.64096,0.13041 0.8745,-4.3197 -0.56226,-0.11478 c -0.04489,-0.56255 -0.33184,-1.01 -0.75063,-1.0884 l -0.03637,-0.0071 c -0.10938,-0.02046 -0.21905,-0.01335 -0.32588,0.01591 -0.34662,-3.8469 -3.4207,-6.8866 -7.2174,-6.9526 -3.7901,-0.06535 -6.9625,2.8548 -7.4515,6.6767 -0.0034,2.84e-4 -0.0068,2.84e-4 -0.01023,8.52e-4 l -0.03722,0.006 c -0.44265,0.06733 -0.75347,0.54522 -0.7958,1.1467 l -0.01932,-0.11706 -0.73586,0.12416 0.72478,4.3475 z"
           id="path96"
           style="fill:#808080" />
        <path
           d="m 23.901,56.706 c 0,0 0.22331,-0.43185 0,-0.62505 -0.22331,-0.19377 -0.48129,-0.38725 -0.57562,-0.40202 h -1.3845 c -0.09404,0.01477 -0.38696,0.20826 -0.61028,0.40202 -0.22331,0.19348 0.0099,0.62505 0.0099,0.62505 0,0 0.66,0.86342 0.87138,1.1018 0.21166,0.23809 0.43867,0.19348 0.43867,0.19348 0,0 0.18723,0.04461 0.39861,-0.19348 0.21166,-0.23837 0.85177,-1.1018 0.85177,-1.1018 z"
           id="path98"
           style="fill:#808080" />
        <ellipse
           cx="24.139999"
           cy="54.247002"
           rx="0.46169001"
           ry="0.88786"
           id="ellipse100"
           style="fill:#808080" />
        <ellipse
           cx="21.197001"
           cy="54.247002"
           rx="0.46169001"
           ry="0.88786"
           id="ellipse102"
           style="fill:#808080" />
        <path
           d="m 35.304,45.166 c 0.02188,0.0099 0.04205,0.02245 0.06336,0.03409 L 35.381,45.11912 c -0.02415,0.0179 -0.05143,0.03125 -0.077,0.04688 z"
           id="path104"
           style="fill:#808080" />
        <path
           d="m 22.611,47.439 c -0.14547,0 -0.28117,0.04744 -0.41016,0.04687 -0.13922,-5.68e-4 -0.26622,0.02206 -0.38867,0.02148 -0.0037,2.85e-4 -0.02784,0.01144 -0.03125,0.01172 0.34293,0.0017 0.58789,0.01563 0.58789,0.01563 v 0.0039 c -4.2452,0.0858 -5.4997,2.9494 -5.8457,4.1211 l 0.56836,3.6641 c 0.10768,0.69352 -0.3607,1.2826 -1.0488,1.3164 -0.14859,0.0071 -0.29466,-0.01708 -0.43359,-0.06055 -0.15371,0.95292 -3.9231,4.2961 -4.3223,4.7891 -0.40231,0.4972 -0.63602,0.83598 -0.11523,1.2383 0.52078,0.40288 1.6426,-0.33988 2.2344,-0.74219 0.59181,-0.40288 1.0078,-0.30273 1.0078,-0.30273 v -0.06055 c 0,0.57275 0.18695,1.3804 0.41406,2.1191 h 1.4551 c 0.01373,-2.0478 0.50358,-4.9897 2.916,-6.7344 0.04006,-0.02898 0.07606,-0.05644 0.11328,-0.08398 l -0.08008,-0.08203 0.23828,-0.24414 c -0.75802,-0.32616 -1.2891,-1.0794 -1.2891,-1.957 0,-1.1768 0.95377,-2.1309 2.1309,-2.1309 0.86229,0 1.6025,0.51358 1.9375,1.25 l 0.36328,-0.36914 0.36914,0.36914 c 0.33526,-0.73671 1.0908,-1.25 1.9531,-1.25 1.1771,0 2.1309,0.95406 2.1309,2.1309 0,0.87763 -0.53104,1.6306 -1.2891,1.957 l 0.23828,0.24414 -0.08203,0.08203 c 0.0375,0.02756 0.07546,0.05501 0.11523,0.08398 2.4126,1.7447 2.9024,4.6866 2.916,6.7344 h 1.4258 c 0.20778,-0.72403 0.37626,-1.4903 0.36914,-2.0586 0,0 0.4492,-0.09986 1.041,0.30273 0.59181,0.40231 1.7527,1.1451 2.2734,0.74219 0.52078,-0.4023 0.28316,-0.74108 -0.11914,-1.2383 -0.36537,-0.45231 -3.571,-3.3015 -4.2188,-4.5059 -0.14092,0.04432 -0.28859,0.06765 -0.43945,0.06055 -0.68812,-0.03381 -1.1587,-0.6226 -1.0508,-1.3164 l 0.51953,-3.3359 c -0.01392,-0.06364 -0.02529,-0.1136 -0.03125,-0.14258 -0.0733,-0.35202 -0.68386,-4.4924 -6.082,-4.5898 v -0.0996 z"
           id="path106"
           style="fill:#808080" />
        <path
           d="m 23.306,47.532 c -0.10058,5.68e-4 -0.1807,8.52e-4 -0.29235,0.0014 -0.09262,2.85e-4 -0.18752,8.53e-4 -0.28582,0.0014 0.1091,-2.84e-4 0.32418,-0.0014 0.53896,-0.0023 -8.52e-4,-2.84e-4 0.04006,-2.84e-4 0.03921,-5.68e-4 z"
           id="path108"
           style="fill:#808080" />
      </g>
      <g
         transform="matrix(0.36565418,0,0,0.36565418,155.9224,-84.418315)"
         id="g118"
         style="fill:#808080">
        <path
           d="m 23.474,9.841 -2,-6 C 21.412,3.656 21.249,3.523 21.055,3.502 l -9,-1 C 12.046,2.501 12.039,2.506 12.03,2.505 12.021,2.504 12.012,2.506 12.003,2.506 11.995,2.506 11.987,2.505 11.98,2.505 11.968,2.505 11.958,2.499 11.946,2.5 l -9,1 C 2.751,3.523 2.588,3.655 2.526,3.84 l -2,6 C 0.474,9.993 0.5,10.161 0.594,10.291 0.688,10.422 0.839,10.499 1,10.499 h 1.5 v 8.5 c 0,0.234 0.163,0.437 0.392,0.488 l 9,2 c 0.035,0.008 0.072,0.012 0.108,0.012 0.036,0 0.073,-0.004 0.108,-0.012 l 9,-2 c 0.229,-0.05 0.392,-0.254 0.392,-0.488 v -8.5 H 23 c 0.161,0 0.312,-0.077 0.406,-0.207 0.093,-0.131 0.119,-0.299 0.068,-0.451 z M 1.694,9.499 3.373,4.46 11.314,3.578 9.623,9.499 Z M 11.5,20.375 3.5,18.598 V 10.499 H 10 c 0.223,0 0.419,-0.148 0.481,-0.364 L 11.5,6.569 Z m 9,-1.776 -8,1.777 V 6.569 l 1.019,3.567 c 0.062,0.215 0.258,0.363 0.481,0.363 h 6.5 z m -6.123,-9.1 -1.691,-5.921 7.941,0.882 1.679,5.039 z"
           id="path116"
           style="fill:#808080" />
      </g>
    </g>
    <g
       id="g1366"
       transform="matrix(0.199051,0,0,0.199051,57.961669,115.86118)"
       style="fill:#999999">
      <g
         id="XMLID_108_"
         style="fill:#999999">
        <path
           id="XMLID_109_"
           d="m 139.999,25.775 v 116.724 c 0,1.381 1.119,2.5 2.5,2.5 H 302.46 c 1.381,0 2.5,-1.119 2.5,-2.5 V 2.5 c 0,-0.726 -0.315,-1.416 -0.864,-1.891 -0.548,-0.475 -1.275,-0.687 -1.996,-0.583 L 142.139,23.301 c -1.229,0.179 -2.14,1.233 -2.14,2.474 z"
           style="fill:#999999" />
        <path
           id="XMLID_110_"
           d="m 122.501,279.948 c 0.601,0 1.186,-0.216 1.644,-0.616 0.544,-0.475 0.856,-1.162 0.856,-1.884 V 162.5 c 0,-1.381 -1.119,-2.5 -2.5,-2.5 H 2.592 c -0.663,0 -1.299,0.263 -1.768,0.732 -0.469,0.469 -0.732,1.105 -0.732,1.768 l 0.006,98.515 c 0,1.25 0.923,2.307 2.16,2.477 l 119.903,16.434 c 0.113,0.014 0.227,0.022 0.34,0.022 z"
           style="fill:#999999" />
        <path
           id="XMLID_138_"
           d="m 2.609,144.999 h 119.892 c 1.381,0 2.5,-1.119 2.5,-2.5 V 28.681 c 0,-0.722 -0.312,-1.408 -0.855,-1.883 -0.543,-0.475 -1.261,-0.693 -1.981,-0.594 L 2.164,42.5 C 0.923,42.669 -0.001,43.728 0,44.98 l 0.109,97.521 c 0.002,1.38 1.121,2.498 2.5,2.498 z"
           style="fill:#999999" />
        <path
           id="XMLID_169_"
           d="m 302.46,305 c 0.599,0 1.182,-0.215 1.64,-0.613 0.546,-0.475 0.86,-1.163 0.86,-1.887 l 0.04,-140 c 0,-0.663 -0.263,-1.299 -0.732,-1.768 C 303.799,160.263 303.163,160 302.5,160 H 142.499 c -1.381,0 -2.5,1.119 -2.5,2.5 v 117.496 c 0,1.246 0.918,2.302 2.151,2.476 l 159.961,22.504 c 0.117,0.016 0.233,0.024 0.349,0.024 z"
           style="fill:#999999" />
      </g>
      <g
         id="g1311"
         style="fill:#999999" />
      <g
         id="g1313"
         style="fill:#999999" />
      <g
         id="g1315"
         style="fill:#999999" />
      <g
         id="g1317"
         style="fill:#999999" />
      <g
         id="g1319"
         style="fill:#999999" />
      <g
         id="g1321"
         style="fill:#999999" />
      <g
         id="g1323"
         style="fill:#999999" />
      <g
         id="g1325"
         style="fill:#999999" />
      <g
         id="g1327"
         style="fill:#999999" />
      <g
         id="g1329"
         style="fill:#999999" />
      <g
         id="g1331"
         style="fill:#999999" />
      <g
         id="g1333"
         style="fill:#999999" />
      <g
         id="g1335"
         style="fill:#999999" />
      <g
         id="g1337"
         style="fill:#999999" />
      <g
         id="g1339"
         style="fill:#999999" />
    </g>
  </g>
</svg>
